<?xml version="1.0" encoding="UTF-8"?>
<!-- Created with Inkscape (http://www.inkscape.org/) -->
<svg id="svg8" width="356.16mm" height="90.313mm" version="1.1" viewBox="0 0 356.16 90.313" xmlns="http://www.w3.org/2000/svg">
	<g id="layer1" transform="translate(102.79 226.97)">
		<text id="text900-3" x="-20.94874" y="-283.73798" fill="#000000" font-family="sans-serif" font-size="25.4px" letter-spacing="0px" stroke-width=".26458" word-spacing="0px" style="line-height:1.25" xml:space="preserve"><tspan id="tspan898-7" x="-20.94874" y="-261.26492" font-family="Gulim" font-size="25.4px" stroke-width=".26458"/></text>
	</g>
	<g id="layer2" transform="translate(102.79 226.97)">
		<rect id="rect959" x="-102.79" y="-226.97" width="356.16" height="90.313" ry=".48563" fill="#00aad4" style="paint-order:normal"/>
	</g>
	<g id="layer3" transform="translate(102.79 226.97)">
		<path id="path826" d="m-54.106-224.07c-0.1035-6e-5 -0.20304 0.0122-0.29229 0.0378-1.0005 0.28734-1.722 1.7934-2.0595 4.2987-0.18175 1.3491-0.24879 2.7326-0.22997 4.749l0.01226 1.3133-0.07261 0.64089c-0.47374 1.4729-0.3312 3.2277-0.41561 4.4758-0.07376 1.0906-0.08697 1.3902-0.10065 2.2752l-0.0133 0.85685-0.1378 0.20431c-0.49756 0.73751-1.0064 1.0586-1.3982 0.88214-0.25318-0.11398-0.45386-0.37392-0.64558-0.83596-0.03105-0.0749-0.60812-1.8806-1.2824-4.013-0.88432-2.7965-1.2474-3.9736-1.3026-4.2237-0.28162-1.2746-0.71799-2.7206-1.1225-3.7196-0.2029-0.50115-0.53152-1.1721-0.7358-1.5022-0.50961-0.82361-1.0492-1.2727-1.5705-1.307-0.27739-0.0182-0.60001 0.0227-0.76108 0.0969-0.17499 0.0805-0.39649 0.29349-0.50491 0.48519-0.10526 0.18607-0.2181 0.53038-0.26504 0.80902-0.05382 0.31914-0.0532 1.2115 8.31e-4 1.6495 0.10882 0.87849 0.31588 1.8337 0.6345 2.9272 0.12156 0.41714 0.3417 1.1163 0.41496 1.3175 0.01891 0.0521 0.08625 0.34515 0.14953 0.65142 0.59539 2.8815 1.3214 5.7731 1.9346 7.7052l0.12802 0.40311-0.0335 0.20418c-0.1099 0.67188-0.42027 1.034-0.82014 0.95678-0.15613-0.0302-0.42328-0.16182-0.61116-0.30127-0.32148-0.23862-0.75826-0.70698-1.2008-1.2877-0.20961-0.27504-0.32071-0.46927-1.7074-2.984-0.81577-1.4793-1.5222-2.7748-1.5699-2.8788-0.28422-0.62033-0.72867-1.277-1.1389-1.6824-0.39554-0.39092-0.75382-0.58724-1.1646-0.63818-0.28919-0.0359-0.55519 0.0176-0.8629 0.17338-0.31334 0.15864-0.48536 0.38651-0.56005 0.74184-0.04355 0.20724-0.0308 0.80246 0.02357 1.1007 0.14344 0.78662 0.50357 1.8481 1.1549 3.4042 0.67301 1.6079 1.2045 2.7824 2.7052 5.9782 0.61462 1.3088 0.7314 1.574 0.87398 1.9842 0.3448 0.99215 0.48828 1.7377 0.69173 3.5948 0.1503 1.372 0.23751 1.9824 0.41861 2.9289 0.2158 1.1279 0.43942 1.9928 0.92691 3.5851 0.3717 1.2142 0.55464 1.8662 0.74596 2.6582 0.17696 0.73253 0.22675 0.89829 0.53594 1.7861 1.0336 2.9677 1.0795 3.1482 1.1209 4.3918 0.0572 1.7202 0.06301 2.0863 0.04329 2.7469-0.02872 0.96219-0.11775 1.9853-0.42904 4.9333-0.69353 6.5679-2.8157 24.505-4.3103 36.432l-0.05867 0.46747h18.307l-0.0052-0.30985c-0.0029-0.17048-0.01987-1.2651-0.03766-2.4324s-0.06589-4.2073-0.10677-6.7557c-0.1701-10.603-0.20795-13.036-0.25565-16.411-0.01738-1.2309-0.04331-3.0463-0.05749-4.0345-0.03454-2.4121-0.03484-6.3278-8.32e-4 -7.4491 0.05165-1.687 0.10361-2.7787 0.19777-4.1606 0.07272-1.0673 0.15051-1.668 0.28642-2.2103 0.23585-0.94126 0.578-1.537 1.253-2.1817 0.3157-0.30158 0.52755-0.47197 1.1966-0.96216 1.109-0.81247 1.4709-1.143 1.9722-1.8008 0.40188-0.5274 0.52123-0.67429 1.2286-1.5129 1.0727-1.2717 1.3356-1.6059 1.7614-2.2379 0.74363-1.1039 1.2484-2.0714 2.2641-4.3392 0.21998-0.49119 0.53007-1.1768 0.68912-1.5235 0.15906-0.34673 0.4308-0.95654 0.60386-1.3553 0.51875-1.1952 0.84056-1.8647 1.1101-2.3092 0.11006-0.18155 0.31542-0.68817 0.31542-0.68817 0.02049-1.1596 0.01891-1.1535-0.03484-1.4893-0.21484-0.44107-0.13407-0.30752-0.21484-0.44107-0.22985-0.38009-0.65865-0.65835-1.0908-0.7803-0.35325-0.0996-0.67185-0.12795-1.0998 0.0758-0.88897 0.42324-1.8123 1.4816-2.3379 2.6799-0.52768 1.203-1.4818 2.7156-2.1247 3.3686-0.38054 0.38648-0.63217 0.54561-0.89445 0.56548-0.1868 0.0142-0.3209-0.0576-0.50113-0.26831-0.3195-0.37339-0.56592-1.0928-0.67621-1.9742-0.13633-1.0894-0.0865-2.5772 0.13858-4.1396 0.1492-1.0356 0.27678-1.6661 0.49318-2.4376 1.0769-3.8396 2.1674-7.6298 2.6633-9.2562 0.70246-2.3042 0.91076-3.1162 1.0295-4.0136 0.05048-0.38148 0.06131-1.0104 0.02191-1.2712-0.09375-0.62049-0.35416-1.0796-0.78051-1.3759-0.2299-0.1598-0.5666-0.31963-0.70711-0.33566-0.15762-0.0179-0.38684 0.0263-0.54558 0.10521-1.0963 0.54549-2.1783 2.6227-3.2447 6.2292-0.18863 0.63792-0.18825 0.63677-0.82157 2.5321-0.78582 2.3518-0.94652 2.8541-1.2935 4.043-0.19735 0.67619-0.21861 0.73559-0.32943 0.9183-0.16924 0.27898-0.40692 0.58341-0.59005 0.75592-0.35332 0.33289-0.60474 0.38126-0.85104 0.1634-0.16809-0.14868-0.35022-0.54019-0.42916-0.9224-0.02116-0.10246-0.0175-0.30324 0.01979-1.1024 0.14991-3.2083 0.19283-5.5636 0.18473-10.118-0.0046-2.5751-0.0148-3.1041-0.07653-3.94-0.08295-1.1233-0.24924-1.9599-0.49865-2.5093-0.08568-0.18876-0.27849-0.46086-0.40322-0.56894-0.20944-0.18148-0.55542-0.29128-0.8659-0.29152z" fill="#0f0" stroke-width=".021186"/>
		<path id="path826-5" d="m147.04-220.42c0.1035-6e-5 0.20303 0.0115 0.29229 0.0359 1.0005 0.27384 1.722 1.7091 2.0595 4.0964 0.18174 1.2856 0.24878 2.604 0.22996 4.5255l-0.0123 1.2515 0.0726 0.61073c0.47374 1.4036 0.33121 3.0758 0.41562 4.2652 0.0738 1.0393 0.087 1.3248 0.10064 2.1682l0.0133 0.81655 0.1378 0.1947c0.49757 0.70279 1.0064 1.0087 1.3982 0.84062 0.25318-0.10862 0.45386-0.35634 0.64558-0.79663 0.031-0.0713 0.60812-1.7921 1.2824-3.8241 0.88433-2.6649 1.2474-3.7866 1.3026-4.0249 0.28162-1.2146 0.71799-2.5925 1.1225-3.5446 0.2029-0.47756 0.53152-1.117 0.7358-1.4316 0.50961-0.78483 1.0492-1.2128 1.5705-1.2455 0.27739-0.0175 0.60001 0.0217 0.76108 0.0924 0.17499 0.0768 0.39649 0.27968 0.50491 0.46234 0.10526 0.17733 0.2181 0.50543 0.26503 0.77096 0.0538 0.30411 0.0532 1.1545-8.3e-4 1.5718-0.10882 0.83715-0.31588 1.7474-0.6345 2.7894-0.12155 0.39752-0.34169 1.0637-0.41495 1.2555-0.0189 0.0495-0.0863 0.3289-0.14953 0.62076-0.59539 2.7459-1.3214 5.5014-1.9346 7.3426l-0.12802 0.38415 0.0335 0.19456c0.10989 0.64026 0.42027 0.98533 0.82014 0.91175 0.15613-0.0288 0.42327-0.1542 0.61115-0.28709 0.32149-0.22738 0.75827-0.67371 1.2008-1.2271 0.20961-0.2621 0.32071-0.44719 1.7074-2.8436 0.81577-1.4097 1.5222-2.6442 1.5699-2.7433 0.28422-0.59115 0.72867-1.2169 1.1389-1.6033 0.39554-0.37252 0.75381-0.5596 1.1646-0.60816 0.28919-0.0342 0.55519 0.0168 0.8629 0.16524 0.31334 0.15116 0.48536 0.36831 0.56006 0.70691 0.0435 0.1975 0.0308 0.7647-0.0236 1.0489-0.14345 0.7496-0.50358 1.7611-1.1549 3.244-0.67301 1.5322-1.2045 2.6515-2.7052 5.6968-0.61463 1.2472-0.73141 1.4999-0.87399 1.8908-0.34479 0.94546-0.48828 1.6559-0.69173 3.4257-0.1503 1.3075-0.2375 1.8891-0.4186 2.7911-0.2158 1.0748-0.43942 1.899-0.92691 3.4164-0.3717 1.157-0.55464 1.7783-0.74596 2.5331-0.17696 0.69807-0.22675 0.85603-0.53594 1.702-1.0336 2.828-1.0795 3-1.1209 4.1851-0.0572 1.6392-0.063 1.9881-0.0433 2.6177 0.0287 0.9169 0.11775 1.8919 0.42904 4.7011 0.69353 6.2588 2.8157 23.351 4.3103 34.717l0.0587 0.44548h-18.307l5e-3 -0.29527c3e-3 -0.16246 0.0199-1.2055 0.0377-2.3179 0.0178-1.1123 0.0659-4.0093 0.10677-6.4377 0.1701-10.104 0.20795-12.422 0.25565-15.639 0.0174-1.1729 0.0433-2.903 0.0575-3.8446 0.0345-2.2986 0.0348-6.03 8.3e-4 -7.0986-0.0516-1.6076-0.10361-2.6479-0.19777-3.9648-0.0727-1.0171-0.15051-1.5895-0.28642-2.1063-0.23585-0.89699-0.578-1.4647-1.253-2.0791-0.31571-0.28739-0.52755-0.44977-1.1966-0.91688-1.109-0.77423-1.4709-1.0892-1.9722-1.7161-0.40188-0.50259-0.52123-0.64256-1.2286-1.4417-1.0727-1.2119-1.3356-1.5303-1.7614-2.1326-0.74362-1.052-1.2484-1.9739-2.2641-4.135-0.21997-0.46806-0.53007-1.1214-0.68911-1.4518-0.15906-0.3304-0.43081-0.91151-0.60387-1.2915-0.51875-1.1389-0.84055-1.7769-1.1101-2.2005-0.11006-0.173-0.31542-0.65579-0.31542-0.65579-0.0205-1.105-0.0189-1.0992 0.0348-1.4192 0.21484-0.42032 0.13406-0.29304 0.21484-0.42032 0.22985-0.3622 0.65865-0.62737 1.0908-0.74358 0.35325-0.095 0.67186-0.12192 1.0998 0.0722 0.88897 0.40335 1.8123 1.4119 2.3379 2.5538 0.52768 1.1464 1.4818 2.5878 2.1247 3.2101 0.38054 0.36829 0.63217 0.51993 0.89445 0.53886 0.1868 0.0134 0.3209-0.0549 0.50113-0.25568 0.31949-0.3558 0.56592-1.0414 0.67621-1.8813 0.13633-1.0381 0.0865-2.456-0.13858-3.9447-0.1492-0.98688-0.27678-1.5877-0.49318-2.3229-1.0769-3.6588-2.1674-7.2707-2.6633-8.8206-0.70246-2.1957-0.91075-2.9695-1.0295-3.8247-0.0505-0.36354-0.0613-0.96287-0.0219-1.2114 0.0937-0.59128 0.35417-1.0288 0.78051-1.3112 0.2299-0.15229 0.5666-0.30459 0.70711-0.31985 0.15761-0.0171 0.38684 0.025 0.54558 0.1003 1.0963 0.51982 2.1783 2.4993 3.2447 5.936 0.18864 0.6079 0.18825 0.6068 0.82158 2.413 0.78582 2.2411 0.94652 2.7198 1.2935 3.8527 0.19735 0.64437 0.21861 0.70098 0.32943 0.87508 0.16924 0.26587 0.40692 0.55596 0.59005 0.72036 0.35332 0.31722 0.60474 0.3633 0.85103 0.15571 0.16809-0.14169 0.35023-0.51479 0.42916-0.879 0.0212-0.0976 0.0175-0.28895-0.0198-1.0505-0.14991-3.0573-0.19283-5.3017-0.18473-9.6417 5e-3 -2.4539 0.0148-2.958 0.0765-3.7546 0.083-1.0704 0.24924-1.8677 0.49866-2.3912 0.0857-0.17987 0.27849-0.43917 0.40322-0.54216 0.20944-0.17294 0.55541-0.27757 0.86589-0.2778z" fill="#ff2a7f" stroke-width=".020681"/>
		<path id="path826-5-7" d="m-28.081-212.3c0.1035-5e-5 0.20304 0.0104 0.29229 0.0324 1.0005 0.24683 1.722 1.5405 2.0595 3.6924 0.18175 1.1588 0.24879 2.3472 0.22996 4.0792l-0.01226 1.1281 0.07261 0.55049c0.47374 1.2652 0.3312 2.7724 0.41561 3.8445 0.07376 0.93679 0.08697 1.1941 0.10064 1.9543l0.0133 0.73601 0.1378 0.17549c0.49757 0.63348 1.0064 0.90926 1.3982 0.75771 0.25318-0.098 0.45386-0.32119 0.64558-0.71805 0.03105-0.0643 0.60812-1.6154 1.2824-3.4469 0.88433-2.402 1.2474-3.4131 1.3026-3.6279 0.28162-1.0948 0.71799-2.3368 1.1225-3.195 0.2029-0.43047 0.53152-1.0068 0.7358-1.2904 0.50961-0.70742 1.0492-1.0932 1.5705-1.1227 0.27739-0.0157 0.60001 0.0196 0.76108 0.0833 0.17499 0.0692 0.39649 0.2521 0.50492 0.41674 0.10526 0.15985 0.2181 0.45558 0.26503 0.69492 0.05382 0.27412 0.05321 1.0406-8.31e-4 1.4168-0.10882 0.75458-0.31588 1.575-0.6345 2.5143-0.12155 0.35831-0.34169 0.95881-0.41496 1.1317-0.01891 0.0447-0.08625 0.29645-0.14953 0.55952-0.59539 2.4751-1.3214 4.9588-1.9346 6.6184l-0.12802 0.34625 0.0335 0.17538c0.10989 0.57711 0.42027 0.88814 0.82014 0.82182 0.15613-0.0259 0.42328-0.13899 0.61116-0.25877 0.32149-0.20495 0.75826-0.60727 1.2008-1.106 0.20961-0.23625 0.32071-0.40309 1.7074-2.5631 0.81577-1.2707 1.5222-2.3834 1.5699-2.4727 0.28422-0.53285 0.72866-1.0969 1.1389-1.4451 0.39554-0.33578 0.75382-0.50441 1.1646-0.54818 0.28919-0.0308 0.55518 0.0151 0.8629 0.14894 0.31334 0.13626 0.48536 0.33198 0.56005 0.63719 0.04355 0.17802 0.0308 0.68928-0.02357 0.94543-0.14344 0.67566-0.50357 1.5874-1.1549 2.9241-0.67301 1.3811-1.2045 2.39-2.7052 5.135-0.61462 1.1242-0.7314 1.3519-0.87398 1.7044-0.3448 0.85221-0.48828 1.4926-0.69173 3.0878-0.15031 1.1785-0.23751 1.7028-0.41861 2.5158-0.2158 0.96883-0.43942 1.7117-0.92691 3.0794-0.3717 1.0429-0.55464 1.603-0.74596 2.2833-0.17696 0.62922-0.22675 0.7716-0.53594 1.5341-1.0336 2.5491-1.0795 2.7041-1.1209 3.7724-0.0572 1.4776-0.06301 1.792-0.04329 2.3595 0.02872 0.82645 0.11775 1.7053 0.42904 4.2375 0.69353 5.6415 2.8157 21.048 4.3103 31.293l0.05866 0.40154h-18.307l0.0052-0.26615c0.0029-0.14643 0.01987-1.0866 0.03766-2.0893 0.01779-1.0026 0.06589-3.6139 0.10677-5.8028 0.1701-9.1077 0.20795-11.197 0.25565-14.097 0.01738-1.0572 0.04331-2.6167 0.05749-3.4654 0.03454-2.0719 0.03483-5.4353 8.31e-4 -6.3984-0.05165-1.4491-0.10361-2.3867-0.19776-3.5737-0.07272-0.91675-0.15051-1.4327-0.28642-1.8986-0.23585-0.80851-0.578-1.3202-1.253-1.874-0.3157-0.25905-0.52755-0.40541-1.1966-0.82645-1.109-0.69787-1.4709-0.98175-1.9722-1.5468-0.40188-0.45302-0.52123-0.57919-1.2286-1.2995-1.0727-1.0923-1.3356-1.3794-1.7614-1.9223-0.74362-0.94821-1.2484-1.7792-2.2641-3.7272-0.21998-0.4219-0.53007-1.0108-0.68912-1.3086-0.15906-0.29781-0.4308-0.82161-0.60386-1.1641-0.51875-1.0266-0.84056-1.6017-1.1101-1.9835-0.11006-0.15595-0.31542-0.59111-0.31542-0.59111-0.02049-0.99603-0.01891-0.99077 0.03484-1.2793 0.21484-0.37887 0.13406-0.26414 0.21484-0.37887 0.22985-0.32647 0.65865-0.56548 1.0908-0.67024 0.35325-0.0856 0.67185-0.10989 1.0998 0.0651 0.88897 0.36356 1.8123 1.2727 2.3379 2.3019 0.52768 1.0333 1.4818 2.3326 2.1247 2.8935 0.38054 0.33197 0.63217 0.46865 0.89445 0.48572 0.1868 0.0121 0.3209-0.0495 0.50114-0.23047 0.31949-0.32071 0.56591-0.93869 0.67621-1.6958 0.13633-0.93575 0.0865-2.2137-0.13858-3.5557-0.1492-0.88954-0.27678-1.4311-0.49318-2.0938-1.0769-3.298-2.1674-6.5536-2.6633-7.9507-0.70246-1.9792-0.91076-2.6766-1.0295-3.4475-0.05048-0.32769-0.06131-0.86791-0.02191-1.092 0.09374-0.53296 0.35416-0.9273 0.78051-1.1818 0.2299-0.13726 0.5666-0.27455 0.7071-0.2883 0.15762-0.0154 0.38684 0.0226 0.54559 0.0904 1.0963 0.46855 2.1783 2.2527 3.2447 5.3506 0.18863 0.54793 0.18825 0.54695 0.82157 2.175 0.78582 2.02 0.94652 2.4515 1.2935 3.4727 0.19735 0.5808 0.21861 0.63183 0.32944 0.78877 0.16924 0.23964 0.40692 0.50112 0.59005 0.64931 0.35332 0.28593 0.60474 0.32747 0.85104 0.14035 0.16809-0.12771 0.35022-0.46401 0.42916-0.7923 0.02116-0.088 0.0175-0.26047-0.01979-0.94686-0.14991-2.7557-0.19283-4.7788-0.18472-8.6907 0.0046-2.2118 0.0148-2.6662 0.07652-3.3842 0.08294-0.96487 0.24924-1.6835 0.49865-2.1554 0.08568-0.16212 0.27849-0.39584 0.40323-0.48868 0.20944-0.15588 0.55542-0.25019 0.8659-0.25041z" fill="#f00" stroke-width=".019635"/>
		<path id="path826-5-5" d="m207.49-214.34c0.1035-6e-5 0.20304 0.0111 0.2923 0.0345 1.0005 0.26278 1.722 1.6401 2.0595 3.9311 0.18175 1.2337 0.24879 2.499 0.22997 4.3429l-0.0123 1.201 0.0726 0.58609c0.47374 1.347 0.33121 2.9517 0.41561 4.0931 0.0738 0.99736 0.087 1.2713 0.10064 2.0807l0.0133 0.78359 0.1378 0.18685c0.49756 0.67444 1.0064 0.96805 1.3982 0.80669 0.25318-0.10423 0.45386-0.34194 0.64558-0.76447 0.031-0.0685 0.60812-1.7198 1.2824-3.6698 0.88433-2.5574 1.2474-3.6338 1.3026-3.8625 0.28162-1.1656 0.71799-2.4879 1.1225-3.4016 0.2029-0.45829 0.53152-1.0719 0.73579-1.3738 0.50962-0.75316 1.0492-1.1639 1.5705-1.1953 0.27739-0.0167 0.60002 0.0209 0.76108 0.0887 0.175 0.0737 0.39649 0.2684 0.50492 0.4437 0.10526 0.17018 0.21809 0.48502 0.26503 0.73985 0.0538 0.29183 0.0532 1.1079-8.3e-4 1.5084-0.10882 0.80337-0.31588 1.6769-0.6345 2.6768-0.12155 0.38149-0.34169 1.0208-0.41496 1.2049-0.0189 0.0476-0.0863 0.31562-0.14953 0.5957-0.59539 2.6351-1.3214 5.2794-1.9346 7.0464l-0.12803 0.36862 0.0335 0.18672c0.10989 0.61443 0.42027 0.94557 0.82014 0.87496 0.15613-0.0276 0.42327-0.14798 0.61115-0.2755 0.32149-0.2182 0.75826-0.64653 1.2008-1.1776 0.2096-0.25151 0.3207-0.42914 1.7074-2.7288 0.81577-1.3528 1.5222-2.5375 1.5699-2.6326 0.28422-0.56729 0.72866-1.1678 1.1389-1.5386 0.39555-0.35748 0.75382-0.53702 1.1646-0.58362 0.28919-0.0328 0.55518 0.0161 0.8629 0.15858 0.31334 0.14506 0.48536 0.35344 0.56005 0.67838 0.0436 0.18954 0.0308 0.73385-0.0236 1.0066-0.14344 0.71936-0.50357 1.6901-1.1549 3.1132-0.67301 1.4704-1.2045 2.5445-2.7052 5.467-0.61462 1.1969-0.7314 1.4394-0.87398 1.8145-0.34479 0.90731-0.48828 1.5891-0.69173 3.2874-0.1503 1.2547-0.23751 1.8129-0.41861 2.6785-0.21579 1.0315-0.43942 1.8224-0.9269 3.2785-0.3717 1.1103-0.55464 1.7066-0.74597 2.4309-0.17695 0.6699-0.22675 0.82149-0.53594 1.6333-1.0336 2.7139-1.0795 2.879-1.1209 4.0163-0.0572 1.5731-0.063 1.9079-0.0433 2.512 0.0287 0.8799 0.11775 1.8155 0.42904 4.5114 0.69353 6.0063 2.8157 22.409 4.3103 33.316l0.0587 0.4275h-18.307l5e-3 -0.28336c3e-3 -0.1559 0.0199-1.1569 0.0377-2.2244s0.0659-3.8475 0.10677-6.178c0.17009-9.6966 0.20794-11.921 0.25565-15.008 0.0174-1.1256 0.0433-2.7858 0.0575-3.6895 0.0345-2.2058 0.0348-5.7867 8.3e-4 -6.8122-0.0516-1.5428-0.10361-2.5411-0.19777-3.8048-0.0727-0.97602-0.15051-1.5253-0.28641-2.0213-0.23586-0.86077-0.57801-1.4056-1.253-1.9952-0.3157-0.27579-0.52755-0.43161-1.1966-0.87989-1.109-0.74299-1.4709-1.0452-1.9722-1.6468-0.40187-0.48232-0.52123-0.61664-1.2286-1.3835-1.0727-1.163-1.3356-1.4686-1.7614-2.0465-0.74362-1.0095-1.2484-1.8943-2.2641-3.9682-0.21998-0.44918-0.53007-1.0762-0.68912-1.3933-0.15906-0.31707-0.4308-0.87474-0.60386-1.2394-0.51875-1.093-0.84056-1.7052-1.1101-2.1118-0.11007-0.16602-0.31542-0.62933-0.31542-0.62933-0.0205-1.0604-0.0189-1.0548 0.0348-1.362 0.21484-0.40337 0.13406-0.28122 0.21484-0.40337 0.22984-0.34759 0.65864-0.60205 1.0908-0.71358 0.35325-0.0911 0.67185-0.117 1.0998 0.0693 0.88897 0.38707 1.8123 1.355 2.3379 2.4507 0.52768 1.1001 1.4818 2.4834 2.1247 3.0806 0.38054 0.35342 0.63216 0.49894 0.89444 0.51711 0.18681 0.013 0.3209-0.0527 0.50114-0.24536 0.31949-0.34145 0.56591-0.99939 0.67621-1.8054 0.13633-0.99625 0.0865-2.3569-0.13859-3.7856-0.14919-0.94705-0.27677-1.5236-0.49317-2.2292-1.0769-3.5112-2.1674-6.9774-2.6633-8.4647-0.70246-2.1071-0.91075-2.8497-1.0295-3.6704-0.0505-0.34889-0.0613-0.92404-0.0219-1.1626 0.0937-0.56743 0.35416-0.98726 0.78051-1.2583 0.2299-0.14613 0.5666-0.2923 0.7071-0.30694 0.15762-0.0164 0.38685 0.0241 0.54559 0.0962 1.0963 0.49884 2.1783 2.3984 3.2447 5.6965 0.18863 0.58337 0.18825 0.58231 0.82158 2.3156 0.78582 2.1506 0.94651 2.61 1.2935 3.6972 0.19735 0.61836 0.2186 0.67269 0.32943 0.83978 0.16924 0.25512 0.40692 0.53352 0.59005 0.69128 0.35331 0.30442 0.60474 0.34865 0.85103 0.14943 0.16809-0.13596 0.35022-0.494 0.42916-0.84353 0.0212-0.0937 0.0175-0.2773-0.0198-1.0081-0.14991-2.9339-0.19282-5.0878-0.18472-9.2527 5e-3 -2.3549 0.0148-2.8386 0.0765-3.6031 0.083-1.0273 0.24924-1.7923 0.49866-2.2947 0.0857-0.1726 0.27849-0.42145 0.40322-0.52029 0.20944-0.16596 0.55542-0.26636 0.86589-0.26659z" fill="#f60" stroke-width=".02026"/>
		<path id="path826-6" d="m6.8852-218.3c-0.1035-5e-5 -0.20304 0.0114-0.29229 0.0355-1.0005 0.27015-1.722 1.6861-2.0595 4.0413-0.18174 1.2683-0.24879 2.569-0.22997 4.4646l0.01226 1.2347-0.07261 0.60251c-0.47374 1.3847-0.3312 3.0344-0.41561 4.2078-0.07376 1.0253-0.08697 1.3069-0.10064 2.139l-0.0133 0.80556-0.13781 0.19207c-0.49756 0.69335-1.0064 0.99519-1.3982 0.82932-0.25318-0.10715-0.45386-0.35154-0.64558-0.78591-0.03105-0.0704-0.60812-1.768-1.2824-3.7727-0.88432-2.629-1.2474-3.7356-1.3026-3.9708-0.28162-1.1983-0.71799-2.5577-1.1225-3.4969-0.2029-0.47114-0.53151-1.1019-0.73579-1.4123-0.50961-0.77427-1.0492-1.1965-1.5705-1.2288-0.27739-0.0172-0.60001 0.0215-0.76108 0.0912-0.17499 0.0757-0.39649 0.27593-0.50492 0.45613-0.10526 0.17495-0.2181 0.49863-0.26504 0.76059-0.05382 0.30002-0.0532 1.139 8.31e-4 1.5507 0.10882 0.82588 0.31588 1.7239 0.6345 2.7519 0.12156 0.39217 0.3417 1.0494 0.41496 1.2387 0.01891 0.0489 0.08625 0.32447 0.14953 0.6124 0.59539 2.709 1.3214 5.4274 1.9346 7.2439l0.12802 0.37896-0.0335 0.19196c-0.1099 0.63165-0.42027 0.97206-0.82014 0.89949-0.15613-0.0284-0.42327-0.15214-0.61116-0.28324-0.32148-0.2243-0.75825-0.66464-1.2008-1.2106-0.20961-0.25858-0.32071-0.44117-1.7074-2.8053-0.81577-1.3908-1.5222-2.6086-1.5699-2.7064-0.28422-0.58321-0.72867-1.2006-1.1389-1.5817-0.39554-0.36751-0.75382-0.55208-1.1646-0.59998-0.28919-0.0337-0.55519 0.0165-0.8629 0.16301-0.31334 0.14913-0.48536 0.36336-0.56005 0.69741-0.04355 0.19484-0.0308 0.7544 0.02357 1.0348 0.14344 0.73951 0.50357 1.7374 1.1549 3.2004 0.67301 1.5116 1.2045 2.6158 2.7052 5.6202 0.61462 1.2304 0.7314 1.4797 0.87398 1.8654 0.34479 0.93274 0.48828 1.6336 0.69173 3.3796 0.15031 1.2899 0.23751 1.8637 0.41861 2.7536 0.2158 1.0604 0.43942 1.8734 0.92691 3.3704 0.3717 1.1414 0.55464 1.7544 0.74596 2.499 0.17696 0.68868 0.22675 0.84451 0.53594 1.6791 1.0336 2.79 1.0795 2.9597 1.1209 4.1288 0.0572 1.6172 0.06301 1.9613 0.04329 2.5825-0.02872 0.90456-0.11775 1.8664-0.42904 4.6379-0.69353 6.1746-2.8157 23.037-4.3103 34.25l-0.05867 0.4395h18.307l-0.0052-0.29131c-0.0029-0.16027-0.01987-1.1893-0.03766-2.2867s-0.0659-3.9554-0.10677-6.3512c-0.1701-9.9684-0.20795-12.255-0.25565-15.429-0.01738-1.1571-0.04331-2.8639-0.05749-3.7929-0.03455-2.2677-0.03484-5.9489-8.31e-4 -7.0031 0.05165-1.586 0.1036-2.6123 0.19776-3.9114 0.07272-1.0034 0.15051-1.5681 0.28642-2.078 0.23585-0.88492 0.578-1.445 1.253-2.0511 0.3157-0.28352 0.52755-0.44371 1.1966-0.90455 1.109-0.76382 1.4709-1.0745 1.9722-1.693 0.40188-0.49583 0.52124-0.63393 1.2286-1.4223 1.0727-1.1956 1.3356-1.5097 1.7614-2.1039 0.74363-1.0378 1.2484-1.9474 2.2641-4.0794 0.21998-0.46177 0.53007-1.1064 0.68912-1.4323 0.15906-0.32595 0.4308-0.89926 0.60386-1.2741 0.51875-1.1236 0.84056-1.753 1.1101-2.171 0.11006-0.17069 0.31542-0.64698 0.31542-0.64698 0.02049-1.0902 0.01891-1.0844-0.03484-1.4001-0.21484-0.41467-0.13407-0.2891-0.21484-0.41467-0.22985-0.35733-0.65865-0.61892-1.0908-0.73358-0.35324-0.0937-0.67184-0.12028-1.0998 0.0712-0.88896 0.39792-1.8123 1.3929-2.3379 2.5194-0.52768 1.131-1.4818 2.553-2.1247 3.1669-0.38054 0.36334-0.63217 0.51293-0.89445 0.53161-0.1868 0.0134-0.3209-0.0542-0.50113-0.25224-0.3195-0.35103-0.56592-1.0274-0.67621-1.856-0.13633-1.0242-0.0865-2.4229 0.13858-3.8917 0.1492-0.9736 0.27678-1.5663 0.49318-2.2916 1.0769-3.6097 2.1674-7.173 2.6633-8.702 0.70246-2.1662 0.91076-2.9296 1.0295-3.7733 0.05048-0.35866 0.06131-0.94993 0.02191-1.1951-0.09374-0.58333-0.35417-1.0149-0.78051-1.2935-0.2299-0.15023-0.5666-0.30049-0.70711-0.31554-0.15761-0.0169-0.38684 0.0247-0.54558 0.0991-1.0963 0.51283-2.1783 2.4656-3.2447 5.8562-0.18862 0.59971-0.18824 0.59863-0.82157 2.3805-0.78582 2.2109-0.94651 2.6832-1.2935 3.8009-0.19735 0.63568-0.21861 0.69154-0.32944 0.86331-0.16924 0.26228-0.40692 0.54847-0.59005 0.71067-0.35332 0.31295-0.60474 0.35841-0.85104 0.15361-0.16809-0.13978-0.35022-0.50786-0.42916-0.86717-0.02116-0.0963-0.0175-0.28509 0.01979-1.0363 0.14991-3.0162 0.19283-5.2304 0.18473-9.512-0.0046-2.4209-0.0148-2.9182-0.07653-3.704-0.08291-1.0561-0.2492-1.8426-0.49862-2.359-0.08568-0.17744-0.27849-0.43326-0.40322-0.53486-0.20944-0.17061-0.55542-0.27383-0.8659-0.27407z" fill="#000080" stroke-width=".020541"/>
		<path id="path826-0" d="m180.78-202.1c-0.1035-6e-5 -0.20304 0.0104-0.29229 0.0324-1.0005 0.24682-1.722 1.5405-2.0595 3.6924-0.18175 1.1588-0.24879 2.3472-0.22997 4.0792l0.0123 1.1281-0.0726 0.55049c-0.47374 1.2652-0.3312 2.7724-0.41561 3.8445-0.0738 0.93679-0.087 1.1941-0.10065 1.9543l-0.0133 0.736-0.1378 0.17549c-0.49757 0.63348-1.0064 0.90926-1.3982 0.75771-0.25318-0.0979-0.45386-0.32119-0.64558-0.71805-0.031-0.0643-0.60813-1.6154-1.2824-3.4469-0.88433-2.402-1.2474-3.4131-1.3026-3.6279-0.28162-1.0948-0.71798-2.3368-1.1224-3.195-0.2029-0.43046-0.53152-1.0068-0.7358-1.2904-0.50961-0.70742-1.0492-1.0932-1.5705-1.1227-0.27739-0.0157-0.60001 0.0196-0.76108 0.0833-0.17499 0.0692-0.39649 0.2521-0.50491 0.41675-0.10526 0.15984-0.2181 0.45557-0.26504 0.69491-0.0538 0.27412-0.0532 1.0406 8.3e-4 1.4168 0.10882 0.75458 0.31588 1.575 0.6345 2.5143 0.12155 0.35831 0.3417 0.95881 0.41496 1.1317 0.0189 0.0447 0.0863 0.29646 0.14953 0.55952 0.59539 2.4751 1.3214 4.9588 1.9346 6.6184l0.12803 0.34625-0.0335 0.17538c-0.10989 0.57711-0.42027 0.88814-0.82013 0.82182-0.15613-0.0259-0.42328-0.139-0.61116-0.25878-0.32148-0.20494-0.75826-0.60725-1.2008-1.106-0.20961-0.23625-0.32071-0.40308-1.7074-2.5631-0.81577-1.2707-1.5222-2.3834-1.5699-2.4727-0.28422-0.53284-0.72867-1.0969-1.1389-1.4451-0.39554-0.33578-0.75382-0.50441-1.1646-0.54818-0.28919-0.0308-0.55519 0.0151-0.86291 0.14894-0.31333 0.13626-0.48536 0.33198-0.56005 0.63719-0.0436 0.17802-0.0308 0.68928 0.0236 0.94543 0.14344 0.67566 0.50357 1.5874 1.1549 2.9241 0.67301 1.3811 1.2045 2.39 2.7052 5.135 0.61462 1.1242 0.7314 1.3519 0.87398 1.7044 0.3448 0.85221 0.48829 1.4926 0.69174 3.0878 0.1503 1.1785 0.2375 1.7028 0.4186 2.5158 0.2158 0.96884 0.43942 1.7117 0.92691 3.0794 0.3717 1.0429 0.55464 1.603 0.74596 2.2833 0.17696 0.62922 0.22675 0.7716 0.53594 1.5342 1.0336 2.5491 1.0795 2.7041 1.1209 3.7723 0.0572 1.4776 0.063 1.792 0.0433 2.3595-0.0287 0.82646-0.11776 1.7053-0.42904 4.2375-0.69354 5.6415-2.8157 21.048-4.3103 31.293l-0.0587 0.40155h18.307l-5e-3 -0.26616c-3e-3 -0.14643-0.0199-1.0866-0.0377-2.0893-0.0178-1.0026-0.0659-3.6138-0.10677-5.8028-0.17009-9.1077-0.20794-11.197-0.25565-14.097-0.0174-1.0572-0.0433-2.6167-0.0575-3.4654-0.0345-2.0719-0.0348-5.4353-8.3e-4 -6.3984 0.0516-1.4491 0.1036-2.3867 0.19776-3.5737 0.0727-0.91674 0.15051-1.4327 0.28642-1.8986 0.23585-0.80851 0.578-1.3202 1.253-1.874 0.3157-0.25905 0.52755-0.40541 1.1966-0.82645 1.109-0.69787 1.4709-0.98175 1.9722-1.5468 0.40188-0.45302 0.52124-0.57919 1.2286-1.2995 1.0727-1.0923 1.3356-1.3794 1.7614-1.9223 0.74362-0.94821 1.2484-1.7792 2.2641-3.7272 0.21998-0.42191 0.53007-1.0108 0.68911-1.3086 0.15906-0.29781 0.43081-0.82162 0.60387-1.1641 0.51875-1.0266 0.84056-1.6017 1.1101-1.9835 0.11007-0.15594 0.31542-0.59112 0.31542-0.59112 0.0205-0.99603 0.0189-0.99075-0.0348-1.2792-0.21483-0.37887-0.13406-0.26414-0.21483-0.37887-0.22986-0.32647-0.65865-0.56548-1.0908-0.67024-0.35325-0.0856-0.67185-0.10989-1.0998 0.0651-0.88897 0.36355-1.8123 1.2727-2.3379 2.3019-0.52768 1.0333-1.4818 2.3326-2.1247 2.8934-0.38055 0.33197-0.63218 0.46865-0.89446 0.48572-0.18679 0.0121-0.32089-0.0495-0.50113-0.23047-0.31949-0.32071-0.56592-0.93869-0.67621-1.6958-0.13633-0.93575-0.0865-2.2137 0.13858-3.5557 0.1492-0.88954 0.27679-1.4311 0.49318-2.0938 1.0769-3.298 2.1674-6.5536 2.6633-7.9507 0.70246-1.9792 0.91076-2.6766 1.0295-3.4475 0.0505-0.32769 0.0613-0.86791 0.0219-1.092-0.0937-0.53296-0.35416-0.9273-0.78051-1.1818-0.2299-0.13726-0.56659-0.27454-0.7071-0.2883-0.15762-0.0154-0.38685 0.0226-0.54559 0.0904-1.0963 0.46855-2.1783 2.2527-3.2447 5.3506-0.18863 0.54793-0.18825 0.54695-0.82157 2.175-0.78583 2.02-0.94652 2.4515-1.2935 3.4727-0.19735 0.5808-0.21861 0.63183-0.32944 0.78877-0.16923 0.23964-0.40692 0.50112-0.59004 0.64931-0.35332 0.28593-0.60475 0.32747-0.85104 0.14035-0.16809-0.12771-0.35022-0.464-0.42916-0.7923-0.0212-0.088-0.0175-0.26046 0.0198-0.94686 0.1499-2.7558 0.19282-4.7788 0.18473-8.6907-5e-3 -2.2118-0.0148-2.6662-0.0765-3.3842-0.0829-0.96488-0.2492-1.6835-0.49862-2.1554-0.0857-0.16213-0.27849-0.39585-0.40322-0.48869-0.20944-0.15588-0.55542-0.25019-0.8659-0.2504z" fill="#ff0" stroke-width=".019635"/>
		<path id="path826-5-5-4" d="m230.19-200.42c0.1035-6e-5 0.20304 0.0104 0.2923 0.0324 1.0005 0.24682 1.722 1.5405 2.0595 3.6924 0.18175 1.1588 0.24879 2.3472 0.22997 4.0792l-0.0123 1.1281 0.0726 0.55049c0.47374 1.2652 0.33121 2.7725 0.41561 3.8445 0.0738 0.93679 0.087 1.1941 0.10064 1.9543l0.0133 0.736 0.1378 0.1755c0.49756 0.63348 1.0064 0.90926 1.3982 0.7577 0.25318-0.0979 0.45386-0.32118 0.64558-0.71804 0.031-0.0643 0.60812-1.6154 1.2824-3.4469 0.88433-2.402 1.2474-3.4131 1.3026-3.6279 0.28162-1.0948 0.71799-2.3368 1.1225-3.195 0.2029-0.43046 0.53152-1.0068 0.73579-1.2904 0.50962-0.70742 1.0492-1.0932 1.5705-1.1227 0.27739-0.0157 0.60002 0.0196 0.76108 0.0833 0.175 0.0692 0.39649 0.2521 0.50492 0.41675 0.10526 0.15985 0.21809 0.45557 0.26503 0.69492 0.0538 0.27411 0.0532 1.0406-7.9e-4 1.4168-0.10882 0.75458-0.31588 1.575-0.6345 2.5143-0.12155 0.35832-0.34169 0.95882-0.41496 1.1317-0.0189 0.0447-0.0863 0.29646-0.14953 0.55953-0.59539 2.4751-1.3214 4.9588-1.9346 6.6184l-0.12803 0.34624 0.0335 0.17538c0.10989 0.57711 0.42027 0.88814 0.82014 0.82182 0.15613-0.0259 0.42327-0.13899 0.61115-0.25877 0.32149-0.20495 0.75826-0.60726 1.2008-1.106 0.2096-0.23624 0.3207-0.40308 1.7074-2.5631 0.81577-1.2707 1.5222-2.3834 1.5699-2.4728 0.28422-0.53284 0.72866-1.0969 1.1389-1.4451 0.39555-0.33577 0.75382-0.50441 1.1646-0.54818 0.28919-0.0308 0.55518 0.0151 0.8629 0.14895 0.31334 0.13625 0.48536 0.33198 0.56005 0.63718 0.0436 0.17803 0.0308 0.68928-0.0236 0.94543-0.14344 0.67567-0.50357 1.5874-1.1549 2.9241-0.67301 1.3811-1.2045 2.39-2.7052 5.135-0.61462 1.1242-0.7314 1.3519-0.87398 1.7043-0.34479 0.85221-0.48828 1.4926-0.69173 3.0878-0.1503 1.1785-0.23751 1.7028-0.41861 2.5158-0.21579 0.96883-0.43942 1.7117-0.9269 3.0794-0.3717 1.0429-0.55464 1.603-0.74597 2.2832-0.17695 0.62922-0.22675 0.7716-0.53594 1.5342-1.0336 2.5491-1.0795 2.7041-1.1209 3.7724-0.0572 1.4775-0.063 1.792-0.0433 2.3595 0.0287 0.82646 0.11775 1.7053 0.42904 4.2375 0.69353 5.6415 2.8157 21.048 4.3103 31.293l0.0587 0.40154h-18.307l5e-3 -0.26615c3e-3 -0.14643 0.0199-1.0866 0.0377-2.0893s0.0659-3.6139 0.10677-5.8028c0.17009-9.1077 0.20794-11.197 0.25565-14.097 0.0174-1.0572 0.0433-2.6167 0.0575-3.4654 0.0345-2.0719 0.0348-5.4353 8.2e-4 -6.3984-0.0516-1.4491-0.10361-2.3867-0.19777-3.5737-0.0727-0.91675-0.15051-1.4327-0.28641-1.8986-0.23586-0.8085-0.57801-1.3202-1.253-1.874-0.3157-0.25904-0.52755-0.4054-1.1966-0.82645-1.109-0.69787-1.4709-0.98175-1.9722-1.5468-0.40187-0.45303-0.52123-0.57919-1.2286-1.2995-1.0727-1.0923-1.3356-1.3794-1.7614-1.9222-0.74362-0.94822-1.2484-1.7792-2.2641-3.7272-0.21997-0.4219-0.53006-1.0108-0.68911-1.3086-0.15906-0.29782-0.4308-0.82162-0.60386-1.1641-0.51875-1.0266-0.84056-1.6017-1.1101-1.9835-0.11007-0.15594-0.31542-0.59111-0.31542-0.59111-0.0205-0.99603-0.0189-0.99076 0.0348-1.2792 0.21484-0.37887 0.13406-0.26414 0.21484-0.37887 0.22984-0.32648 0.65864-0.56549 1.0908-0.67024 0.35325-0.0856 0.67185-0.1099 1.0998 0.0651 0.88897 0.36356 1.8123 1.2727 2.3379 2.3019 0.52768 1.0333 1.4818 2.3326 2.1247 2.8935 0.38054 0.33196 0.63216 0.46864 0.89444 0.48571 0.18681 0.0122 0.3209-0.0495 0.50114-0.23046 0.31949-0.32072 0.56591-0.9387 0.67621-1.6958 0.13633-0.93574 0.0865-2.2137-0.13859-3.5556-0.14919-0.88954-0.27677-1.4311-0.49317-2.0938-1.0769-3.298-2.1674-6.5536-2.6633-7.9506-0.70246-1.9792-0.91075-2.6766-1.0295-3.4475-0.0505-0.3277-0.0613-0.86792-0.0219-1.092 0.0937-0.53297 0.35416-0.9273 0.78051-1.1818 0.2299-0.13726 0.5666-0.27455 0.7071-0.2883 0.15762-0.0154 0.38685 0.0226 0.54559 0.0904 1.0963 0.46855 2.1783 2.2528 3.2447 5.3506 0.18863 0.54794 0.18825 0.54695 0.82158 2.175 0.78582 2.02 0.94651 2.4515 1.2935 3.4727 0.19735 0.58081 0.2186 0.63184 0.32943 0.78878 0.16924 0.23963 0.40692 0.50112 0.59005 0.6493 0.35331 0.28593 0.60474 0.32747 0.85103 0.14035 0.16809-0.1277 0.35022-0.464 0.42916-0.7923 0.0212-0.088 0.0175-0.26046-0.0198-0.94686-0.14991-2.7557-0.19282-4.7788-0.18472-8.6907 5e-3 -2.2118 0.0148-2.6662 0.0765-3.3842 0.083-0.96487 0.24924-1.6835 0.49866-2.1554 0.0857-0.16212 0.27849-0.39585 0.40322-0.48869 0.20944-0.15588 0.55542-0.25018 0.86589-0.2504z" fill="#800080" stroke-width=".019635"/>
		<path id="path826-5-7-9" d="m-82.314-207.72c0.1035-5e-5 0.20304 0.0101 0.29229 0.0303 1.0005 0.2308 1.722 1.4404 2.0595 3.4526 0.18176 1.0836 0.2488 2.1948 0.22997 3.8143l-0.0123 1.0548 0.0726 0.51474c0.47374 1.183 0.33121 2.5924 0.41562 3.5949 0.0738 0.87597 0.087 1.1166 0.10064 1.8274l0.0133 0.68821 0.1378 0.1641c0.49757 0.59235 1.0064 0.85022 1.3982 0.70851 0.25318-0.0917 0.45386-0.30034 0.64558-0.67142 0.03105-0.0601 0.60812-1.5105 1.2824-3.2231 0.88433-2.2461 1.2474-3.1915 1.3026-3.3923 0.28162-1.0238 0.71799-2.1851 1.1225-2.9875 0.2029-0.40251 0.53152-0.94142 0.7358-1.2066 0.50961-0.66148 1.0492-1.0222 1.5705-1.0498 0.27739-0.0147 0.60001 0.0183 0.76108 0.0779 0.17499 0.0647 0.39649 0.23573 0.50492 0.38968 0.10526 0.14946 0.2181 0.42599 0.26503 0.64979 0.05382 0.25632 0.05321 0.97307-7.94e-4 1.3248-0.10882 0.70558-0.31588 1.4728-0.6345 2.351-0.12155 0.33503-0.34169 0.89654-0.41496 1.0582-0.01892 0.0418-0.08625 0.27721-0.14953 0.5232-0.59539 2.3144-1.3214 4.6368-1.9346 6.1887l-0.12802 0.32377 0.03351 0.16399c0.10989 0.53963 0.42027 0.83046 0.82014 0.76845 0.15613-0.0242 0.42328-0.12996 0.61116-0.24196 0.32149-0.19164 0.75826-0.56785 1.2008-1.0342 0.20961-0.22091 0.32071-0.37692 1.7074-2.3966 0.81577-1.1882 1.5222-2.2286 1.5699-2.3122 0.28422-0.49826 0.72866-1.0257 1.1389-1.3513 0.39554-0.31398 0.75382-0.47166 1.1646-0.51259 0.28919-0.0288 0.55519 0.0141 0.8629 0.13927 0.31334 0.12742 0.48536 0.31042 0.56005 0.59581 0.04355 0.16646 0.0308 0.64453-0.02357 0.88404-0.14344 0.63179-0.50357 1.4844-1.1549 2.7342-0.67301 1.2914-1.2045 2.2348-2.7052 4.8015-0.61462 1.0512-0.73141 1.2642-0.87398 1.5937-0.34479 0.79688-0.48828 1.3957-0.69173 2.8873-0.15031 1.102-0.23751 1.5922-0.41861 2.3525-0.2158 0.90592-0.43942 1.6005-0.9269 2.8794-0.3717 0.97517-0.55464 1.4989-0.74596 2.135-0.17696 0.58835-0.22675 0.72149-0.53594 1.4345-1.0336 2.3836-1.0795 2.5285-1.1209 3.5274-0.0572 1.3816-0.06301 1.6756-0.04329 2.2063 0.02873 0.77278 0.11775 1.5945 0.42904 3.9623 0.69353 5.2752 2.8157 19.682 4.3103 29.261l0.05866 0.37547h-18.307l5e-3 -0.24887c3e-3 -0.13692 0.0199-1.0161 0.0377-1.9536 0.0178-0.93753 0.0659-3.3792 0.10677-5.426 0.17009-8.5163 0.20794-10.47 0.25565-13.181 0.0174-0.98859 0.0433-2.4468 0.0575-3.2404 0.0345-1.9373 0.0348-5.0824 8.2e-4 -5.983-0.0516-1.355-0.10361-2.2318-0.19777-3.3416-0.0727-0.85722-0.15051-1.3397-0.28642-1.7753-0.23585-0.756-0.578-1.2345-1.253-1.7523-0.31571-0.24224-0.52755-0.37909-1.1966-0.77278-1.109-0.65255-1.4709-0.918-1.9722-1.4464-0.40188-0.42361-0.52123-0.54159-1.2286-1.2151-1.0727-1.0214-1.3356-1.2898-1.7614-1.7974-0.74362-0.88666-1.2484-1.6637-2.2641-3.4852-0.21997-0.39452-0.53006-0.9452-0.68911-1.2237-0.15906-0.27847-0.43081-0.76826-0.60387-1.0885-0.51875-0.95995-0.84055-1.4977-1.1101-1.8547-0.11007-0.14582-0.31542-0.55273-0.31542-0.55273-0.0205-0.93135-0.0189-0.92643 0.0348-1.1962 0.21483-0.35427 0.13406-0.24699 0.21483-0.35427 0.22986-0.30526 0.65865-0.52876 1.0908-0.62672 0.35325-0.08 0.67184-0.10275 1.0998 0.0608 0.88897 0.33995 1.8123 1.19 2.3379 2.1524 0.52769 0.96621 1.4818 2.1811 2.1247 2.7056 0.38055 0.31041 0.63218 0.43822 0.89445 0.45418 0.1868 0.0113 0.3209-0.0463 0.50114-0.2155 0.31949-0.29988 0.56591-0.87774 0.67621-1.5856 0.13633-0.87499 0.0865-2.07-0.13859-3.3248-0.14919-0.83179-0.27678-1.3382-0.49317-1.9578-1.0769-3.0838-2.1674-6.1281-2.6633-7.4344-0.70246-1.8506-0.91075-2.5028-1.0295-3.2236-0.0505-0.30641-0.0613-0.81156-0.0219-1.021 0.0937-0.49835 0.35416-0.86708 0.78051-1.1051 0.22991-0.12835 0.5666-0.25673 0.7071-0.26958 0.15762-0.0145 0.38685 0.0211 0.54559 0.0846 1.0963 0.43812 2.1783 2.1065 3.2447 5.0031 0.18864 0.51235 0.18825 0.51143 0.82158 2.0337 0.78582 1.8888 0.94652 2.2923 1.2935 3.2472 0.19735 0.54309 0.21861 0.59082 0.32943 0.73756 0.16924 0.22408 0.40693 0.46858 0.59005 0.60714 0.35332 0.26737 0.60474 0.30621 0.85103 0.13124 0.16809-0.11941 0.35023-0.43388 0.42917-0.74085 0.0212-0.0822 0.0175-0.24355-0.0198-0.88537-0.14991-2.5768-0.19283-4.4685-0.18473-8.1264 5e-3 -2.0682 0.0148-2.4931 0.0765-3.1645 0.0829-0.90221 0.24924-1.5741 0.49866-2.0154 0.0857-0.1516 0.27849-0.37014 0.40323-0.45695 0.20944-0.14576 0.55542-0.23395 0.86589-0.23415z" fill="#0ff" stroke-width=".018986"/>
	</g>
	<g id="layer4" transform="translate(102.79 226.97)">
		<text id="text900" transform="scale(.64365 1.5536)" x="19.885229" y="-104.58527" fill="#000000" font-family="sans-serif" font-size="32.007px" letter-spacing="0px" stroke-width=".33341" word-spacing="0px" style="line-height:1.25" xml:space="preserve"><tspan id="tspan898" x="19.885229" y="-104.58527" fill="#ffffff" font-family="'Segoe Print'" font-size="28.451px" font-weight="bold" stroke-width=".33341">RAISE  HAND</tspan></text>
	</g>
</svg>
